<svg width="105" height="18" viewBox="0 0 105 18" fill="none" xmlns="http://www.w3.org/2000/svg">
<path d="M93.6276 17.478C93.0606 17.478 92.6016 17.019 92.6016 16.452C92.6016 15.885 93.0606 15.426 93.6276 15.426C94.1946 15.426 94.6536 15.885 94.6536 16.452C94.6536 17.019 94.1946 17.478 93.6276 17.478ZM96.2016 17.478C95.6256 17.478 95.1666 17.019 95.1666 16.452C95.1666 15.885 95.6256 15.426 96.2016 15.426C96.7686 15.426 97.2276 15.885 97.2276 16.452C97.2276 17.019 96.7686 17.478 96.2016 17.478ZM98.7666 17.478C98.1996 17.478 97.7406 17.019 97.7406 16.452C97.7406 15.885 98.1996 15.426 98.7666 15.426C99.3336 15.426 99.8016 15.885 99.8016 16.452C99.8016 17.019 99.3336 17.478 98.7666 17.478ZM101.341 17.478C100.774 17.478 100.315 17.019 100.315 16.452C100.315 15.885 100.774 15.426 101.341 15.426C101.908 15.426 102.367 15.885 102.367 16.452C102.367 17.019 101.908 17.478 101.341 17.478ZM103.915 17.478C103.348 17.478 102.88 17.019 102.88 16.452C102.88 15.885 103.348 15.426 103.915 15.426C104.482 15.426 104.941 15.885 104.941 16.452C104.941 17.019 104.482 17.478 103.915 17.478ZM93.6276 14.913C93.0606 14.913 92.6016 14.454 92.6016 13.878C92.6016 13.311 93.0606 12.852 93.6276 12.852C94.1946 12.852 94.6536 13.311 94.6536 13.878C94.6536 14.454 94.1946 14.913 93.6276 14.913ZM93.6276 12.339C93.0606 12.339 92.6016 11.88 92.6016 11.313C92.6016 10.746 93.0606 10.278 93.6276 10.278C94.1946 10.278 94.6536 10.746 94.6536 11.313C94.6536 11.88 94.1946 12.339 93.6276 12.339ZM93.6276 9.765C93.0606 9.765 92.6016 9.306 92.6016 8.739C92.6016 8.172 93.0606 7.713 93.6276 7.713C94.1946 7.713 94.6536 8.172 94.6536 8.739C94.6536 9.306 94.1946 9.765 93.6276 9.765ZM96.2016 9.765C95.6256 9.765 95.1666 9.306 95.1666 8.739C95.1666 8.172 95.6256 7.713 96.2016 7.713C96.7686 7.713 97.2276 8.172 97.2276 8.739C97.2276 9.306 96.7686 9.765 96.2016 9.765ZM98.7666 9.765C98.1996 9.765 97.7406 9.306 97.7406 8.739C97.7406 8.172 98.1996 7.713 98.7666 7.713C99.3336 7.713 99.8016 8.172 99.8016 8.739C99.8016 9.306 99.3336 9.765 98.7666 9.765ZM101.341 9.765C100.774 9.765 100.315 9.306 100.315 8.739C100.315 8.172 100.774 7.713 101.341 7.713C101.908 7.713 102.367 8.172 102.367 8.739C102.367 9.306 101.908 9.765 101.341 9.765ZM103.915 9.765C103.348 9.765 102.88 9.306 102.88 8.739C102.88 8.172 103.348 7.713 103.915 7.713C104.482 7.713 104.941 8.172 104.941 8.739C104.941 9.306 104.482 9.765 103.915 9.765ZM93.6276 7.2C93.0606 7.2 92.6016 6.732 92.6016 6.165C92.6016 5.598 93.0606 5.139 93.6276 5.139C94.1946 5.139 94.6536 5.598 94.6536 6.165C94.6536 6.732 94.1946 7.2 93.6276 7.2ZM93.6276 4.626C93.0606 4.626 92.6016 4.167 92.6016 3.6C92.6016 3.024 93.0606 2.565 93.6276 2.565C94.1946 2.565 94.6536 3.024 94.6536 3.6C94.6536 4.167 94.1946 4.626 93.6276 4.626ZM93.6276 2.052C93.0606 2.052 92.6016 1.593 92.6016 1.026C92.6016 0.459 93.0606 0 93.6276 0C94.1946 0 94.6536 0.459 94.6536 1.026C94.6536 1.593 94.1946 2.052 93.6276 2.052ZM96.2016 2.052C95.6256 2.052 95.1666 1.593 95.1666 1.026C95.1666 0.459 95.6256 0 96.2016 0C96.7686 0 97.2276 0.459 97.2276 1.026C97.2276 1.593 96.7686 2.052 96.2016 2.052ZM98.7666 2.052C98.1996 2.052 97.7406 1.593 97.7406 1.026C97.7406 0.459 98.1996 0 98.7666 0C99.3336 0 99.8016 0.459 99.8016 1.026C99.8016 1.593 99.3336 2.052 98.7666 2.052ZM101.341 2.052C100.774 2.052 100.315 1.593 100.315 1.026C100.315 0.459 100.774 0 101.341 0C101.908 0 102.367 0.459 102.367 1.026C102.367 1.593 101.908 2.052 101.341 2.052ZM103.915 2.052C103.348 2.052 102.88 1.593 102.88 1.026C102.88 0.459 103.348 0 103.915 0C104.482 0 104.941 0.459 104.941 1.026C104.941 1.593 104.482 2.052 103.915 2.052Z" fill="white"/>
<path d="M78.194 17.478C77.627 17.478 77.168 17.019 77.168 16.452C77.168 15.885 77.627 15.426 78.194 15.426C78.761 15.426 79.22 15.885 79.22 16.452C79.22 17.019 78.761 17.478 78.194 17.478ZM80.768 17.478C80.192 17.478 79.733 17.019 79.733 16.452C79.733 15.885 80.192 15.426 80.768 15.426C81.335 15.426 81.794 15.885 81.794 16.452C81.794 17.019 81.335 17.478 80.768 17.478ZM83.333 17.478C82.766 17.478 82.307 17.019 82.307 16.452C82.307 15.885 82.766 15.426 83.333 15.426C83.9 15.426 84.368 15.885 84.368 16.452C84.368 17.019 83.9 17.478 83.333 17.478ZM85.907 17.478C85.34 17.478 84.881 17.019 84.881 16.452C84.881 15.885 85.34 15.426 85.907 15.426C86.474 15.426 86.933 15.885 86.933 16.452C86.933 17.019 86.474 17.478 85.907 17.478ZM78.194 14.913C77.627 14.913 77.168 14.454 77.168 13.878C77.168 13.311 77.627 12.852 78.194 12.852C78.761 12.852 79.22 13.311 79.22 13.878C79.22 14.454 78.761 14.913 78.194 14.913ZM88.481 14.913C87.914 14.913 87.446 14.454 87.446 13.878C87.446 13.311 87.914 12.852 88.481 12.852C89.048 12.852 89.507 13.311 89.507 13.878C89.507 14.454 89.048 14.913 88.481 14.913ZM78.194 12.339C77.627 12.339 77.168 11.88 77.168 11.313C77.168 10.746 77.627 10.278 78.194 10.278C78.761 10.278 79.22 10.746 79.22 11.313C79.22 11.88 78.761 12.339 78.194 12.339ZM88.481 12.339C87.914 12.339 87.446 11.88 87.446 11.313C87.446 10.746 87.914 10.278 88.481 10.278C89.048 10.278 89.507 10.746 89.507 11.313C89.507 11.88 89.048 12.339 88.481 12.339ZM78.194 9.765C77.627 9.765 77.168 9.306 77.168 8.739C77.168 8.172 77.627 7.713 78.194 7.713C78.761 7.713 79.22 8.172 79.22 8.739C79.22 9.306 78.761 9.765 78.194 9.765ZM88.481 9.765C87.914 9.765 87.446 9.306 87.446 8.739C87.446 8.172 87.914 7.713 88.481 7.713C89.048 7.713 89.507 8.172 89.507 8.739C89.507 9.306 89.048 9.765 88.481 9.765ZM78.194 7.2C77.627 7.2 77.168 6.732 77.168 6.165C77.168 5.598 77.627 5.139 78.194 5.139C78.761 5.139 79.22 5.598 79.22 6.165C79.22 6.732 78.761 7.2 78.194 7.2ZM88.481 7.2C87.914 7.2 87.446 6.732 87.446 6.165C87.446 5.598 87.914 5.139 88.481 5.139C89.048 5.139 89.507 5.598 89.507 6.165C89.507 6.732 89.048 7.2 88.481 7.2ZM78.194 4.626C77.627 4.626 77.168 4.167 77.168 3.6C77.168 3.024 77.627 2.565 78.194 2.565C78.761 2.565 79.22 3.024 79.22 3.6C79.22 4.167 78.761 4.626 78.194 4.626ZM88.481 4.626C87.914 4.626 87.446 4.167 87.446 3.6C87.446 3.024 87.914 2.565 88.481 2.565C89.048 2.565 89.507 3.024 89.507 3.6C89.507 4.167 89.048 4.626 88.481 4.626ZM78.194 2.052C77.627 2.052 77.168 1.593 77.168 1.026C77.168 0.459 77.627 0 78.194 0C78.761 0 79.22 0.459 79.22 1.026C79.22 1.593 78.761 2.052 78.194 2.052ZM80.768 2.052C80.192 2.052 79.733 1.593 79.733 1.026C79.733 0.459 80.192 0 80.768 0C81.335 0 81.794 0.459 81.794 1.026C81.794 1.593 81.335 2.052 80.768 2.052ZM83.333 2.052C82.766 2.052 82.307 1.593 82.307 1.026C82.307 0.459 82.766 0 83.333 0C83.9 0 84.368 0.459 84.368 1.026C84.368 1.593 83.9 2.052 83.333 2.052ZM85.907 2.052C85.34 2.052 84.881 1.593 84.881 1.026C84.881 0.459 85.34 0 85.907 0C86.474 0 86.933 0.459 86.933 1.026C86.933 1.593 86.474 2.052 85.907 2.052Z" fill="white"/>
<path d="M62.7604 17.478C62.1934 17.478 61.7344 17.019 61.7344 16.452C61.7344 15.885 62.1934 15.426 62.7604 15.426C63.3274 15.426 63.7864 15.885 63.7864 16.452C63.7864 17.019 63.3274 17.478 62.7604 17.478ZM73.0474 17.478C72.4804 17.478 72.0124 17.019 72.0124 16.452C72.0124 15.885 72.4804 15.426 73.0474 15.426C73.6144 15.426 74.0734 15.885 74.0734 16.452C74.0734 17.019 73.6144 17.478 73.0474 17.478ZM62.7604 14.913C62.1934 14.913 61.7344 14.454 61.7344 13.878C61.7344 13.311 62.1934 12.852 62.7604 12.852C63.3274 12.852 63.7864 13.311 63.7864 13.878C63.7864 14.454 63.3274 14.913 62.7604 14.913ZM73.0474 14.913C72.4804 14.913 72.0124 14.454 72.0124 13.878C72.0124 13.311 72.4804 12.852 73.0474 12.852C73.6144 12.852 74.0734 13.311 74.0734 13.878C74.0734 14.454 73.6144 14.913 73.0474 14.913ZM62.7604 12.339C62.1934 12.339 61.7344 11.88 61.7344 11.313C61.7344 10.746 62.1934 10.278 62.7604 10.278C63.3274 10.278 63.7864 10.746 63.7864 11.313C63.7864 11.88 63.3274 12.339 62.7604 12.339ZM73.0474 12.339C72.4804 12.339 72.0124 11.88 72.0124 11.313C72.0124 10.746 72.4804 10.278 73.0474 10.278C73.6144 10.278 74.0734 10.746 74.0734 11.313C74.0734 11.88 73.6144 12.339 73.0474 12.339ZM62.7604 9.765C62.1934 9.765 61.7344 9.306 61.7344 8.739C61.7344 8.172 62.1934 7.713 62.7604 7.713C63.3274 7.713 63.7864 8.172 63.7864 8.739C63.7864 9.306 63.3274 9.765 62.7604 9.765ZM65.3344 9.765C64.7584 9.765 64.2994 9.306 64.2994 8.739C64.2994 8.172 64.7584 7.713 65.3344 7.713C65.9014 7.713 66.3604 8.172 66.3604 8.739C66.3604 9.306 65.9014 9.765 65.3344 9.765ZM67.8994 9.765C67.3324 9.765 66.8734 9.306 66.8734 8.739C66.8734 8.172 67.3324 7.713 67.8994 7.713C68.4664 7.713 68.9344 8.172 68.9344 8.739C68.9344 9.306 68.4664 9.765 67.8994 9.765ZM70.4734 9.765C69.9064 9.765 69.4474 9.306 69.4474 8.739C69.4474 8.172 69.9064 7.713 70.4734 7.713C71.0404 7.713 71.4994 8.172 71.4994 8.739C71.4994 9.306 71.0404 9.765 70.4734 9.765ZM73.0474 9.765C72.4804 9.765 72.0124 9.306 72.0124 8.739C72.0124 8.172 72.4804 7.713 73.0474 7.713C73.6144 7.713 74.0734 8.172 74.0734 8.739C74.0734 9.306 73.6144 9.765 73.0474 9.765ZM62.7604 7.2C62.1934 7.2 61.7344 6.732 61.7344 6.165C61.7344 5.598 62.1934 5.139 62.7604 5.139C63.3274 5.139 63.7864 5.598 63.7864 6.165C63.7864 6.732 63.3274 7.2 62.7604 7.2ZM73.0474 7.2C72.4804 7.2 72.0124 6.732 72.0124 6.165C72.0124 5.598 72.4804 5.139 73.0474 5.139C73.6144 5.139 74.0734 5.598 74.0734 6.165C74.0734 6.732 73.6144 7.2 73.0474 7.2ZM62.7604 4.626C62.1934 4.626 61.7344 4.167 61.7344 3.6C61.7344 3.024 62.1934 2.565 62.7604 2.565C63.3274 2.565 63.7864 3.024 63.7864 3.6C63.7864 4.167 63.3274 4.626 62.7604 4.626ZM73.0474 4.626C72.4804 4.626 72.0124 4.167 72.0124 3.6C72.0124 3.024 72.4804 2.565 73.0474 2.565C73.6144 2.565 74.0734 3.024 74.0734 3.6C74.0734 4.167 73.6144 4.626 73.0474 4.626ZM65.3344 2.052C64.7584 2.052 64.2994 1.593 64.2994 1.026C64.2994 0.459 64.7584 0 65.3344 0C65.9014 0 66.3604 0.459 66.3604 1.026C66.3604 1.593 65.9014 2.052 65.3344 2.052ZM67.8994 2.052C67.3324 2.052 66.8734 1.593 66.8734 1.026C66.8734 0.459 67.3324 0 67.8994 0C68.4664 0 68.9344 0.459 68.9344 1.026C68.9344 1.593 68.4664 2.052 67.8994 2.052ZM70.4734 2.052C69.9064 2.052 69.4474 1.593 69.4474 1.026C69.4474 0.459 69.9064 0 70.4734 0C71.0404 0 71.4994 0.459 71.4994 1.026C71.4994 1.593 71.0404 2.052 70.4734 2.052Z" fill="white"/>
<path d="M49.9008 17.478C49.3248 17.478 48.8658 17.019 48.8658 16.452C48.8658 15.885 49.3248 15.426 49.9008 15.426C50.4678 15.426 50.9268 15.885 50.9268 16.452C50.9268 17.019 50.4678 17.478 49.9008 17.478ZM52.4658 17.478C51.8988 17.478 51.4398 17.019 51.4398 16.452C51.4398 15.885 51.8988 15.426 52.4658 15.426C53.0328 15.426 53.5008 15.885 53.5008 16.452C53.5008 17.019 53.0328 17.478 52.4658 17.478ZM55.0398 17.478C54.4728 17.478 54.0138 17.019 54.0138 16.452C54.0138 15.885 54.4728 15.426 55.0398 15.426C55.6068 15.426 56.0658 15.885 56.0658 16.452C56.0658 17.019 55.6068 17.478 55.0398 17.478ZM47.3268 14.913C46.7598 14.913 46.3008 14.454 46.3008 13.878C46.3008 13.311 46.7598 12.852 47.3268 12.852C47.8938 12.852 48.3528 13.311 48.3528 13.878C48.3528 14.454 47.8938 14.913 47.3268 14.913ZM57.6138 14.913C57.0468 14.913 56.5788 14.454 56.5788 13.878C56.5788 13.311 57.0468 12.852 57.6138 12.852C58.1808 12.852 58.6398 13.311 58.6398 13.878C58.6398 14.454 58.1808 14.913 57.6138 14.913ZM47.3268 12.339C46.7598 12.339 46.3008 11.88 46.3008 11.313C46.3008 10.746 46.7598 10.278 47.3268 10.278C47.8938 10.278 48.3528 10.746 48.3528 11.313C48.3528 11.88 47.8938 12.339 47.3268 12.339ZM47.3268 9.765C46.7598 9.765 46.3008 9.306 46.3008 8.739C46.3008 8.172 46.7598 7.713 47.3268 7.713C47.8938 7.713 48.3528 8.172 48.3528 8.739C48.3528 9.306 47.8938 9.765 47.3268 9.765ZM47.3268 7.2C46.7598 7.2 46.3008 6.732 46.3008 6.165C46.3008 5.598 46.7598 5.139 47.3268 5.139C47.8938 5.139 48.3528 5.598 48.3528 6.165C48.3528 6.732 47.8938 7.2 47.3268 7.2ZM47.3268 4.626C46.7598 4.626 46.3008 4.167 46.3008 3.6C46.3008 3.024 46.7598 2.565 47.3268 2.565C47.8938 2.565 48.3528 3.024 48.3528 3.6C48.3528 4.167 47.8938 4.626 47.3268 4.626ZM57.6138 4.626C57.0468 4.626 56.5788 4.167 56.5788 3.6C56.5788 3.024 57.0468 2.565 57.6138 2.565C58.1808 2.565 58.6398 3.024 58.6398 3.6C58.6398 4.167 58.1808 4.626 57.6138 4.626ZM49.9008 2.052C49.3248 2.052 48.8658 1.593 48.8658 1.026C48.8658 0.459 49.3248 0 49.9008 0C50.4678 0 50.9268 0.459 50.9268 1.026C50.9268 1.593 50.4678 2.052 49.9008 2.052ZM52.4658 2.052C51.8988 2.052 51.4398 1.593 51.4398 1.026C51.4398 0.459 51.8988 0 52.4658 0C53.0328 0 53.5008 0.459 53.5008 1.026C53.5008 1.593 53.0328 2.052 52.4658 2.052ZM55.0398 2.052C54.4728 2.052 54.0138 1.593 54.0138 1.026C54.0138 0.459 54.4728 0 55.0398 0C55.6068 0 56.0658 0.459 56.0658 1.026C56.0658 1.593 55.6068 2.052 55.0398 2.052Z" fill="white"/>
<path d="M34.4672 17.478C33.8912 17.478 33.4322 17.019 33.4322 16.452C33.4322 15.885 33.8912 15.426 34.4672 15.426C35.0342 15.426 35.4932 15.885 35.4932 16.452C35.4932 17.019 35.0342 17.478 34.4672 17.478ZM37.0322 17.478C36.4652 17.478 36.0062 17.019 36.0062 16.452C36.0062 15.885 36.4652 15.426 37.0322 15.426C37.5992 15.426 38.0672 15.885 38.0672 16.452C38.0672 17.019 37.5992 17.478 37.0322 17.478ZM39.6062 17.478C39.0392 17.478 38.5802 17.019 38.5802 16.452C38.5802 15.885 39.0392 15.426 39.6062 15.426C40.1732 15.426 40.6322 15.885 40.6322 16.452C40.6322 17.019 40.1732 17.478 39.6062 17.478ZM31.8932 14.913C31.3262 14.913 30.8672 14.454 30.8672 13.878C30.8672 13.311 31.3262 12.852 31.8932 12.852C32.4602 12.852 32.9192 13.311 32.9192 13.878C32.9192 14.454 32.4602 14.913 31.8932 14.913ZM42.1802 14.913C41.6132 14.913 41.1452 14.454 41.1452 13.878C41.1452 13.311 41.6132 12.852 42.1802 12.852C42.7472 12.852 43.2062 13.311 43.2062 13.878C43.2062 14.454 42.7472 14.913 42.1802 14.913ZM42.1802 12.339C41.6132 12.339 41.1452 11.88 41.1452 11.313C41.1452 10.746 41.6132 10.278 42.1802 10.278C42.7472 10.278 43.2062 10.746 43.2062 11.313C43.2062 11.88 42.7472 12.339 42.1802 12.339ZM34.4672 9.765C33.8912 9.765 33.4322 9.306 33.4322 8.739C33.4322 8.172 33.8912 7.713 34.4672 7.713C35.0342 7.713 35.4932 8.172 35.4932 8.739C35.4932 9.306 35.0342 9.765 34.4672 9.765ZM37.0322 9.765C36.4652 9.765 36.0062 9.306 36.0062 8.739C36.0062 8.172 36.4652 7.713 37.0322 7.713C37.5992 7.713 38.0672 8.172 38.0672 8.739C38.0672 9.306 37.5992 9.765 37.0322 9.765ZM39.6062 9.765C39.0392 9.765 38.5802 9.306 38.5802 8.739C38.5802 8.172 39.0392 7.713 39.6062 7.713C40.1732 7.713 40.6322 8.172 40.6322 8.739C40.6322 9.306 40.1732 9.765 39.6062 9.765ZM31.8932 7.2C31.3262 7.2 30.8672 6.732 30.8672 6.165C30.8672 5.598 31.3262 5.139 31.8932 5.139C32.4602 5.139 32.9192 5.598 32.9192 6.165C32.9192 6.732 32.4602 7.2 31.8932 7.2ZM31.8932 4.626C31.3262 4.626 30.8672 4.167 30.8672 3.6C30.8672 3.024 31.3262 2.565 31.8932 2.565C32.4602 2.565 32.9192 3.024 32.9192 3.6C32.9192 4.167 32.4602 4.626 31.8932 4.626ZM42.1802 4.626C41.6132 4.626 41.1452 4.167 41.1452 3.6C41.1452 3.024 41.6132 2.565 42.1802 2.565C42.7472 2.565 43.2062 3.024 43.2062 3.6C43.2062 4.167 42.7472 4.626 42.1802 4.626ZM34.4672 2.052C33.8912 2.052 33.4322 1.593 33.4322 1.026C33.4322 0.459 33.8912 0 34.4672 0C35.0342 0 35.4932 0.459 35.4932 1.026C35.4932 1.593 35.0342 2.052 34.4672 2.052ZM37.0322 2.052C36.4652 2.052 36.0062 1.593 36.0062 1.026C36.0062 0.459 36.4652 0 37.0322 0C37.5992 0 38.0672 0.459 38.0672 1.026C38.0672 1.593 37.5992 2.052 37.0322 2.052ZM39.6062 2.052C39.0392 2.052 38.5802 1.593 38.5802 1.026C38.5802 0.459 39.0392 0 39.6062 0C40.1732 0 40.6322 0.459 40.6322 1.026C40.6322 1.593 40.1732 2.052 39.6062 2.052Z" fill="white"/>
<path d="M16.4596 17.478C15.8926 17.478 15.4336 17.019 15.4336 16.452C15.4336 15.885 15.8926 15.426 16.4596 15.426C17.0266 15.426 17.4856 15.885 17.4856 16.452C17.4856 17.019 17.0266 17.478 16.4596 17.478ZM26.7466 17.478C26.1796 17.478 25.7116 17.019 25.7116 16.452C25.7116 15.885 26.1796 15.426 26.7466 15.426C27.3136 15.426 27.7726 15.885 27.7726 16.452C27.7726 17.019 27.3136 17.478 26.7466 17.478ZM16.4596 14.913C15.8926 14.913 15.4336 14.454 15.4336 13.878C15.4336 13.311 15.8926 12.852 16.4596 12.852C17.0266 12.852 17.4856 13.311 17.4856 13.878C17.4856 14.454 17.0266 14.913 16.4596 14.913ZM26.7466 14.913C26.1796 14.913 25.7116 14.454 25.7116 13.878C25.7116 13.311 26.1796 12.852 26.7466 12.852C27.3136 12.852 27.7726 13.311 27.7726 13.878C27.7726 14.454 27.3136 14.913 26.7466 14.913ZM16.4596 12.339C15.8926 12.339 15.4336 11.88 15.4336 11.313C15.4336 10.746 15.8926 10.278 16.4596 10.278C17.0266 10.278 17.4856 10.746 17.4856 11.313C17.4856 11.88 17.0266 12.339 16.4596 12.339ZM26.7466 12.339C26.1796 12.339 25.7116 11.88 25.7116 11.313C25.7116 10.746 26.1796 10.278 26.7466 10.278C27.3136 10.278 27.7726 10.746 27.7726 11.313C27.7726 11.88 27.3136 12.339 26.7466 12.339ZM16.4596 9.765C15.8926 9.765 15.4336 9.306 15.4336 8.739C15.4336 8.172 15.8926 7.713 16.4596 7.713C17.0266 7.713 17.4856 8.172 17.4856 8.739C17.4856 9.306 17.0266 9.765 16.4596 9.765ZM19.0336 9.765C18.4576 9.765 17.9986 9.306 17.9986 8.739C17.9986 8.172 18.4576 7.713 19.0336 7.713C19.6006 7.713 20.0596 8.172 20.0596 8.739C20.0596 9.306 19.6006 9.765 19.0336 9.765ZM21.5986 9.765C21.0316 9.765 20.5726 9.306 20.5726 8.739C20.5726 8.172 21.0316 7.713 21.5986 7.713C22.1656 7.713 22.6336 8.172 22.6336 8.739C22.6336 9.306 22.1656 9.765 21.5986 9.765ZM24.1726 9.765C23.6056 9.765 23.1466 9.306 23.1466 8.739C23.1466 8.172 23.6056 7.713 24.1726 7.713C24.7396 7.713 25.1986 8.172 25.1986 8.739C25.1986 9.306 24.7396 9.765 24.1726 9.765ZM26.7466 9.765C26.1796 9.765 25.7116 9.306 25.7116 8.739C25.7116 8.172 26.1796 7.713 26.7466 7.713C27.3136 7.713 27.7726 8.172 27.7726 8.739C27.7726 9.306 27.3136 9.765 26.7466 9.765ZM16.4596 7.2C15.8926 7.2 15.4336 6.732 15.4336 6.165C15.4336 5.598 15.8926 5.139 16.4596 5.139C17.0266 5.139 17.4856 5.598 17.4856 6.165C17.4856 6.732 17.0266 7.2 16.4596 7.2ZM26.7466 7.2C26.1796 7.2 25.7116 6.732 25.7116 6.165C25.7116 5.598 26.1796 5.139 26.7466 5.139C27.3136 5.139 27.7726 5.598 27.7726 6.165C27.7726 6.732 27.3136 7.2 26.7466 7.2ZM16.4596 4.626C15.8926 4.626 15.4336 4.167 15.4336 3.6C15.4336 3.024 15.8926 2.565 16.4596 2.565C17.0266 2.565 17.4856 3.024 17.4856 3.6C17.4856 4.167 17.0266 4.626 16.4596 4.626ZM26.7466 4.626C26.1796 4.626 25.7116 4.167 25.7116 3.6C25.7116 3.024 26.1796 2.565 26.7466 2.565C27.3136 2.565 27.7726 3.024 27.7726 3.6C27.7726 4.167 27.3136 4.626 26.7466 4.626ZM19.0336 2.052C18.4576 2.052 17.9986 1.593 17.9986 1.026C17.9986 0.459 18.4576 0 19.0336 0C19.6006 0 20.0596 0.459 20.0596 1.026C20.0596 1.593 19.6006 2.052 19.0336 2.052ZM21.5986 2.052C21.0316 2.052 20.5726 1.593 20.5726 1.026C20.5726 0.459 21.0316 0 21.5986 0C22.1656 0 22.6336 0.459 22.6336 1.026C22.6336 1.593 22.1656 2.052 21.5986 2.052ZM24.1726 2.052C23.6056 2.052 23.1466 1.593 23.1466 1.026C23.1466 0.459 23.6056 0 24.1726 0C24.7396 0 25.1986 0.459 25.1986 1.026C25.1986 1.593 24.7396 2.052 24.1726 2.052Z" fill="white"/>
<path d="M3.6 17.478C3.024 17.478 2.565 17.019 2.565 16.452C2.565 15.885 3.024 15.426 3.6 15.426C4.167 15.426 4.626 15.885 4.626 16.452C4.626 17.019 4.167 17.478 3.6 17.478ZM6.165 17.478C5.598 17.478 5.139 17.019 5.139 16.452C5.139 15.885 5.598 15.426 6.165 15.426C6.732 15.426 7.2 15.885 7.2 16.452C7.2 17.019 6.732 17.478 6.165 17.478ZM8.739 17.478C8.172 17.478 7.713 17.019 7.713 16.452C7.713 15.885 8.172 15.426 8.739 15.426C9.306 15.426 9.765 15.885 9.765 16.452C9.765 17.019 9.306 17.478 8.739 17.478ZM1.026 14.913C0.459 14.913 0 14.454 0 13.878C0 13.311 0.459 12.852 1.026 12.852C1.593 12.852 2.052 13.311 2.052 13.878C2.052 14.454 1.593 14.913 1.026 14.913ZM11.313 14.913C10.746 14.913 10.278 14.454 10.278 13.878C10.278 13.311 10.746 12.852 11.313 12.852C11.88 12.852 12.339 13.311 12.339 13.878C12.339 14.454 11.88 14.913 11.313 14.913ZM1.026 12.339C0.459 12.339 0 11.88 0 11.313C0 10.746 0.459 10.278 1.026 10.278C1.593 10.278 2.052 10.746 2.052 11.313C2.052 11.88 1.593 12.339 1.026 12.339ZM1.026 9.765C0.459 9.765 0 9.306 0 8.739C0 8.172 0.459 7.713 1.026 7.713C1.593 7.713 2.052 8.172 2.052 8.739C2.052 9.306 1.593 9.765 1.026 9.765ZM1.026 7.2C0.459 7.2 0 6.732 0 6.165C0 5.598 0.459 5.139 1.026 5.139C1.593 5.139 2.052 5.598 2.052 6.165C2.052 6.732 1.593 7.2 1.026 7.2ZM1.026 4.626C0.459 4.626 0 4.167 0 3.6C0 3.024 0.459 2.565 1.026 2.565C1.593 2.565 2.052 3.024 2.052 3.6C2.052 4.167 1.593 4.626 1.026 4.626ZM11.313 4.626C10.746 4.626 10.278 4.167 10.278 3.6C10.278 3.024 10.746 2.565 11.313 2.565C11.88 2.565 12.339 3.024 12.339 3.6C12.339 4.167 11.88 4.626 11.313 4.626ZM3.6 2.052C3.024 2.052 2.565 1.593 2.565 1.026C2.565 0.459 3.024 0 3.6 0C4.167 0 4.626 0.459 4.626 1.026C4.626 1.593 4.167 2.052 3.6 2.052ZM6.165 2.052C5.598 2.052 5.139 1.593 5.139 1.026C5.139 0.459 5.598 0 6.165 0C6.732 0 7.2 0.459 7.2 1.026C7.2 1.593 6.732 2.052 6.165 2.052ZM8.739 2.052C8.172 2.052 7.713 1.593 7.713 1.026C7.713 0.459 8.172 0 8.739 0C9.306 0 9.765 0.459 9.765 1.026C9.765 1.593 9.306 2.052 8.739 2.052Z" fill="white"/>
</svg>
