<svg xmlns="http://www.w3.org/2000/svg" version="1.1" xmlns:xlink="http://www.w3.org/1999/xlink" width="32" height="32"><svg width="32" height="32" viewBox="0 0 32 32" fill="none" xmlns="http://www.w3.org/2000/svg">
<rect width="32" height="32" fill="black"></rect>
<path d="M12.6681 27C11.9212 27 11.326 26.4222 11.326 25.7085C11.326 24.9948 11.9212 24.4171 12.6681 24.4171C13.4034 24.4171 13.9985 24.9948 13.9985 25.7085C13.9985 26.4222 13.4034 27 12.6681 27ZM15.9942 27C15.2589 27 14.6637 26.4222 14.6637 25.7085C14.6637 24.9948 15.2589 24.4171 15.9942 24.4171C16.7294 24.4171 17.3363 24.9948 17.3363 25.7085C17.3363 26.4222 16.7294 27 15.9942 27ZM19.3319 27C18.5966 27 18.0015 26.4222 18.0015 25.7085C18.0015 24.9948 18.5966 24.4171 19.3319 24.4171C20.0671 24.4171 20.6623 24.9948 20.6623 25.7085C20.6623 26.4222 20.0671 27 19.3319 27ZM9.33042 23.7714C8.59519 23.7714 8 23.1936 8 22.4686C8 21.7549 8.59519 21.1771 9.33042 21.1771C10.0656 21.1771 10.6608 21.7549 10.6608 22.4686C10.6608 23.1936 10.0656 23.7714 9.33042 23.7714ZM22.6696 23.7714C21.9344 23.7714 21.3275 23.1936 21.3275 22.4686C21.3275 21.7549 21.9344 21.1771 22.6696 21.1771C23.4048 21.1771 24 21.7549 24 22.4686C24 23.1936 23.4048 23.7714 22.6696 23.7714ZM9.33042 20.5314C8.59519 20.5314 8 19.9537 8 19.24C8 18.5263 8.59519 17.9372 9.33042 17.9372C10.0656 17.9372 10.6608 18.5263 10.6608 19.24C10.6608 19.9537 10.0656 20.5314 9.33042 20.5314ZM9.33042 17.2915C8.59519 17.2915 8 16.7137 8 16C8 15.2863 8.59519 14.7085 9.33042 14.7085C10.0656 14.7085 10.6608 15.2863 10.6608 16C10.6608 16.7137 10.0656 17.2915 9.33042 17.2915ZM9.33042 14.0628C8.59519 14.0628 8 13.4737 8 12.76C8 12.0463 8.59519 11.4686 9.33042 11.4686C10.0656 11.4686 10.6608 12.0463 10.6608 12.76C10.6608 13.4737 10.0656 14.0628 9.33042 14.0628ZM9.33042 10.8229C8.59519 10.8229 8 10.2451 8 9.53141C8 8.80639 8.59519 8.22863 9.33042 8.22863C10.0656 8.22863 10.6608 8.80639 10.6608 9.53141C10.6608 10.2451 10.0656 10.8229 9.33042 10.8229ZM22.6696 10.8229C21.9344 10.8229 21.3275 10.2451 21.3275 9.53141C21.3275 8.80639 21.9344 8.22863 22.6696 8.22863C23.4048 8.22863 24 8.80639 24 9.53141C24 10.2451 23.4048 10.8229 22.6696 10.8229ZM12.6681 7.5829C11.9212 7.5829 11.326 7.00515 11.326 6.29145C11.326 5.57775 11.9212 5 12.6681 5C13.4034 5 13.9985 5.57775 13.9985 6.29145C13.9985 7.00515 13.4034 7.5829 12.6681 7.5829ZM15.9942 7.5829C15.2589 7.5829 14.6637 7.00515 14.6637 6.29145C14.6637 5.57775 15.2589 5 15.9942 5C16.7294 5 17.3363 5.57775 17.3363 6.29145C17.3363 7.00515 16.7294 7.5829 15.9942 7.5829ZM19.3319 7.5829C18.5966 7.5829 18.0015 7.00515 18.0015 6.29145C18.0015 5.57775 18.5966 5 19.3319 5C20.0671 5 20.6623 5.57775 20.6623 6.29145C20.6623 7.00515 20.0671 7.5829 19.3319 7.5829Z" fill="white"></path>
</svg><style>@media (prefers-color-scheme: light) { :root { filter: none; } }
@media (prefers-color-scheme: dark) { :root { filter: none; } }
</style></svg>